<svg width="1223.3px" height="336.8px" xmlns="http://www.w3.org/2000/svg" viewBox="-361.65 -93.4 1223.3 336.8" style="background: rgba(0, 0, 0, 0);" preserveAspectRatio="xMidYMid"><defs><filter id="editing-hole" x="-100%" y="-100%" width="300%" height="300%"><feFlood flood-color="#000000" result="black"></feFlood><feMorphology operator="dilate" radius="2" in="SourceGraphic" result="erode"></feMorphology><feGaussianBlur in="erode" stdDeviation="4" result="blur"></feGaussianBlur><feOffset in="blur" dx="2" dy="2" result="offset"></feOffset><feComposite operator="atop" in="offset" in2="black" result="merge"></feComposite><feComposite operator="in" in="merge" in2="SourceGraphic" result="inner-shadow"></feComposite></filter></defs><g filter="url(#editing-hole)"><g transform="translate(-194.2000150680542, 150)"><path d="M84.40-64.40L124.80-68L124.80-68Q110.40-36.40 110.40 0.20L110.40 0.20L110.40 0.20Q105 4 97.10 4L97.10 4L97.10 4Q89.20 4 84.20 0.30L84.20 0.30L84.20 0.30Q79.20-3.40 78.20-7.20L78.20-7.20L78.20-7.20Q73.20-2 65.10 1L65.10 1L65.10 1Q57 4 48.40 4L48.40 4L48.40 4Q39.80 4 32.30 1.20L32.30 1.20L32.30 1.20Q24.80-1.60 19-7.80L19-7.80L19-7.80Q6.20-21.40 6.20-47.20L6.20-47.20L6.20-47.20Q6.20-87.20 27.60-111.20L27.60-111.20L27.60-111.20Q49.60-136 88.60-136L88.60-136L88.60-136Q115.60-136 125.20-122L125.20-122L125.20-122Q128.20-117.60 128.20-112.30L128.20-112.30L128.20-112.30Q128.20-107 125.90-102.50L125.90-102.50L125.90-102.50Q123.60-98 120-94.40L120-94.40L120-94.40Q111.40-86.40 100.80-86.40L100.80-86.40L100.80-86.40Q96.60-86.40 92.60-87.80L92.60-87.80L92.60-87.80Q93.40-93.80 93.40-100.80L93.40-100.80L93.40-100.80Q93.40-107.80 92.90-111L92.90-111L92.90-111Q92.40-114.20 91.20-116.80L91.20-116.80L91.20-116.80Q88.60-122.20 82.90-122.20L82.90-122.20L82.90-122.20Q77.20-122.20 70.90-116.10L70.90-116.10L70.90-116.10Q64.60-110 59.60-100L59.60-100L59.60-100Q48.60-77.60 48.60-50.60L48.60-50.60L48.60-50.60Q48.60-38.20 53.40-29.40L53.40-29.40L53.40-29.40Q58.60-19.80 67.80-19.80L67.80-19.80L67.80-19.80Q71-19.80 73.90-21.40L73.90-21.40L73.90-21.40Q76.80-23 78-24.20L78-24.20L84.40-64.40ZM142.00-32.40L142.00-32.40L142.00-32.40Q135.60-37 135.60-45.80L135.60-45.80L135.60-45.80Q135.60-50.60 138.00-54.50L138.00-54.50L138.00-54.50Q140.40-58.40 145.20-59L145.20-59L184.60-59L184.60-59Q191.20-59 193.20-63L193.20-63L193.20-63Q196.40-61.20 197.80-57.40L197.80-57.40L197.80-57.40Q199.20-53.60 199.20-49.60L199.20-49.60L199.20-49.60Q199.20-45.60 196.10-41.70L196.10-41.70L196.10-41.70Q193.00-37.80 188.40-37.40L188.40-37.40L151.80-37.40L151.80-37.40Q147.60-37.40 145.60-36.10L145.60-36.10L145.60-36.10Q143.60-34.80 142.00-32.40ZM230.00 0L207.00 0L243.20-132L285-132L294.20-56.60L331.40-132L366.40-132L370-33.20L370-33.20Q370.80-13.60 380.40-7.60L380.40-7.60L380.40-7.60Q378.20-3.60 371.80 0.20L371.80 0.20L371.80 0.20Q365.40 4 356.90 4L356.90 4L356.90 4Q348.40 4 343.40 1.60L343.40 1.60L343.40 1.60Q338.40-0.80 335.60-4.80L335.60-4.80L335.60-4.80Q330.60-12 330.60-25.80L330.60-25.80L330.60-87.60L291.20 0L266.40 0L252.40-89.80L230.00 0ZM432.60 4L432.60 4L432.60 4Q388.60 4 388.60-37.40L388.60-37.40L388.60-37.40Q388.60-66.80 404.80-85.80L404.80-85.80L404.80-85.80Q422-106 451.80-106L451.80-106L451.80-106Q473.40-106 484.40-96L484.40-96L484.40-96Q495.40-86 495.40-65L495.40-65L495.40-65Q495.40-33 478.20-14.40L478.20-14.40L478.20-14.40Q461.40 4 432.60 4ZM437.80-83L437.80-83L437.80-83Q435.40-77.60 433.50-69.50L433.50-69.50L433.50-69.50Q431.60-61.40 429.20-48.60L429.20-48.60L429.20-48.60Q426.80-35.80 426.80-20L426.80-20L426.80-20Q426.80-14.80 428.50-11.40L428.50-11.40L428.50-11.40Q430.20-8 434.80-8L434.80-8L434.80-8Q439.40-8 442.30-10.20L442.30-10.20L442.30-10.20Q445.20-12.40 447.40-17.60L447.40-17.60L447.40-17.60Q451.40-26.80 454.60-43.90L454.60-43.90L454.60-43.90Q457.80-61 458.10-68.40L458.10-68.40L458.10-68.40Q458.40-75.80 458.40-81.30L458.40-81.30L458.40-81.30Q458.40-86.80 456.80-90.40L456.80-90.40L456.80-90.40Q455.20-94 450.70-94L450.70-94L450.70-94Q446.20-94 443.20-91.20L443.20-91.20L443.20-91.20Q440.20-88.40 437.80-83ZM579.80-98.60L579.80-98.60L579.80-98.60Q586.40-106 597.80-106L597.80-106L597.80-106Q604.80-106 610.20-102.20L610.20-102.20L610.20-102.20Q615.60-98.40 615.60-91.30L615.60-91.30L615.60-91.30Q615.60-84.20 613.40-76.60L613.40-76.60L613.40-76.60Q611.20-69 607.80-61.20L607.80-61.20L607.80-61.20Q601-46 591.60-33.40L591.60-33.40L591.60-33.40Q578.40-15.20 565.70-5.60L565.70-5.60L565.70-5.60Q553 4 539.20 4L539.20 4L539.20 4Q528 4 521.20 1.40L521.20 1.40L521.20 1.40Q520-40.60 518.50-55.60L518.50-55.60L518.50-55.60Q517-70.60 515.80-78.80L515.80-78.80L515.80-78.80Q513.80-94.80 507.80-98.60L507.80-98.60L507.80-98.60Q512.40-102.60 516.90-104.30L516.90-104.30L516.90-104.30Q521.40-106 530.70-106L530.70-106L530.70-106Q540-106 546.60-98.70L546.60-98.70L546.60-98.70Q553.20-91.40 554.50-78.50L554.50-78.50L554.50-78.50Q555.80-65.60 555.80-50L555.80-50L555.80-50Q555.80-34.40 554.60-15.60L554.60-15.60L554.60-15.60Q560.80-20 567.40-33.40L567.40-33.40L567.40-33.40Q576.40-52 579.60-74.40L579.60-74.40L579.60-74.40Q580.60-81.20 580.60-88.40L580.60-88.40L580.60-88.40Q580.60-95.60 579.80-98.60ZM669-11L669-11L669-11Q662.80 4 643 4L643 4L643 4Q632.80 4 626.40-3L626.40-3L626.40-3Q621-9.20 621-15.40L621-15.40L621-15.40Q621-31.60 628.40-63.20L628.40-63.20L635.80-102L676.40-106L664.20-42.80L664.20-42.80Q660.80-28 660.80-22.80L660.80-22.80L660.80-22.80Q660.80-11.40 669-11ZM639.40-129.80L639.40-129.80L639.40-129.80Q639.40-137.60 645.90-141.80L645.90-141.80L645.90-141.80Q652.40-146 661.80-146L661.80-146L661.80-146Q671.20-146 676.90-141.80L676.90-141.80L676.90-141.80Q682.60-137.60 682.60-129.80L682.60-129.80L682.60-129.80Q682.60-122 676.30-118L676.30-118L676.30-118Q670-114 660.60-114L660.60-114L660.60-114Q651.20-114 645.30-118L645.30-118L645.30-118Q639.40-122 639.40-129.80ZM767-33.80L767-33.80L767-33.80Q772-30.40 772-22.90L772-22.90L772-22.90Q772-15.40 768.20-10.60L768.20-10.60L768.20-10.60Q764.40-5.80 758.20-2.60L758.20-2.60L758.20-2.60Q745.40 4 731.60 4L731.60 4L731.60 4Q717.80 4 709.70 1L709.70 1L709.70 1Q701.60-2 696.20-7.60L696.20-7.60L696.20-7.60Q685.60-18.20 685.60-37.60L685.60-37.60L685.60-37.60Q685.60-67.80 702-86.20L702-86.20L702-86.20Q719.60-106 750.20-106L750.20-106L750.20-106Q769.20-106 778.60-98L778.60-98L778.60-98Q785.60-92 785.60-82.20L785.60-82.20L785.60-82.20Q785.60-47 724.80-47L724.80-47L724.80-47Q724-41.80 724-37.40L724-37.40L724-37.40Q724-28.20 728.10-24.70L728.10-24.70L728.10-24.70Q732.20-21.20 739.80-21.20L739.80-21.20L739.80-21.20Q747.40-21.20 755.50-24.70L755.50-24.70L755.50-24.70Q763.60-28.20 767-33.80ZM726.20-55.60L726.20-55.60L726.20-55.60Q740.40-55.60 748.60-64.40L748.60-64.40L748.60-64.40Q756.80-72.80 756.80-86.20L756.80-86.20L756.80-86.20Q756.80-90.80 755.10-93.30L755.10-93.30L755.10-93.30Q753.40-95.80 750-95.80L750-95.80L750-95.80Q746.60-95.80 743.70-94.50L743.70-94.50L743.70-94.50Q740.80-93.20 737.80-88.80L737.80-88.80L737.80-88.80Q730.40-78.80 726.20-55.60ZM852.20-70.20L852.20-70.20L852.20-70.20Q855-77.60 855-84L855-84L855-84Q855-95.80 845.40-95.80L845.40-95.80L845.40-95.80Q840.40-95.80 836.30-91.30L836.30-91.30L836.30-91.30Q832.20-86.80 832.20-81.20L832.20-81.20L832.20-81.20Q832.20-77.20 835.40-74L835.40-74L835.40-74Q840-69.60 851.80-62.40L851.80-62.40L851.80-62.40Q863.60-55.20 868.10-49.30L868.10-49.30L868.10-49.30Q872.60-43.40 872.60-35.30L872.60-35.30L872.60-35.30Q872.60-27.20 868.70-19.80L868.70-19.80L868.70-19.80Q864.80-12.40 857.80-7.20L857.80-7.20L857.80-7.20Q842.80 4 818.80 4L818.80 4L818.80 4Q805.80 4 795.80-2.80L795.80-2.80L795.80-2.80Q785.80-9.40 785.80-17.20L785.80-17.20L785.80-17.20Q785.80-25 791.50-29.60L791.50-29.60L791.50-29.60Q797.20-34.20 805.60-34.20L805.60-34.20L805.60-34.20Q814-34.20 819.20-31L819.20-31L819.20-31Q816.60-24.40 816.60-20L816.60-20L816.60-20Q816.60-6.80 827.80-6.80L827.80-6.80L827.80-6.80Q832.60-6.80 835.80-9.80L835.80-9.80L835.80-9.80Q839-12.80 839-18L839-18L839-18Q839-28.20 821.80-39L821.80-39L821.80-39Q807.80-48.20 804.60-51.80L804.60-51.80L804.60-51.80Q799.20-58.20 799.20-66.20L799.20-66.20L799.20-66.20Q799.20-74.20 803-81.80L803-81.80L803-81.80Q806.80-89.40 813.80-94.80L813.80-94.80L813.80-94.80Q828.40-106 853.80-106L853.80-106L853.80-106Q866.80-106 874.50-100.80L874.50-100.80L874.50-100.80Q882.20-95.60 882.20-86.80L882.20-86.80L882.20-86.80Q882.20-78 876.90-73L876.90-73L876.90-73Q871.60-68 862-68L862-68L862-68Q855.40-68 852.20-70.20Z" fill="#ffffff"></path></g></g><style>text {
  font-size: 64px;
  font-family: Arial Black;
  dominant-baseline: central;
  text-anchor: middle;
}</style></svg>